<?xml version="1.0" encoding="UTF-8" standalone="no"?>
<!-- Created with Inkscape (http://www.inkscape.org/) -->

<svg
   width="54mm"
   height="54mm"
   viewBox="0 0 54 54"
   version="1.1"
   id="svg1"
   inkscape:version="1.4 (86a8ad7, 2024-10-11)"
   sodipodi:docname="Icon.svg"
   xmlns:inkscape="http://www.inkscape.org/namespaces/inkscape"
   xmlns:sodipodi="http://sodipodi.sourceforge.net/DTD/sodipodi-0.dtd"
   xmlns="http://www.w3.org/2000/svg"
   xmlns:svg="http://www.w3.org/2000/svg">
  <sodipodi:namedview
     id="namedview1"
     pagecolor="#ffffff"
     bordercolor="#000000"
     borderopacity="0.25"
     inkscape:showpageshadow="2"
     inkscape:pageopacity="0.0"
     inkscape:pagecheckerboard="0"
     inkscape:deskcolor="#d1d1d1"
     inkscape:document-units="mm"
     inkscape:zoom="2.9405047"
     inkscape:cx="130.9299"
     inkscape:cy="68.525651"
     inkscape:window-width="2560"
     inkscape:window-height="1369"
     inkscape:window-x="2552"
     inkscape:window-y="-8"
     inkscape:window-maximized="1"
     inkscape:current-layer="layer1" />
  <defs
     id="defs1" />
  <g
     inkscape:label="Layer 1"
     inkscape:groupmode="layer"
     id="layer1"
     transform="translate(-78.360477,-106.86425)">
    <path
       style="fill:#00aad4;fill-opacity:1;stroke:#00aad4;stroke-width:1.39706;stroke-linejoin:round;stroke-opacity:1"
       d="m 81.889083,132.40611 c -0.186768,-4.78994 2.797878,-6.92878 3.13896,-13.40673 0.222409,-4.22407 -4.890766,-10.75737 -4.890766,-10.75737 l 21.840143,-0.0278 c 0,0 0.14701,2.08968 2.65574,2.87324 2.18334,0.68193 3.74313,0.65541 3.74313,0.65541"
       id="path8"
       sodipodi:nodetypes="csccsc" />
    <g
       id="g10"
       transform="translate(0.95437018,2.9903599)">
      <path
         id="path1"
         style="fill:#00aad4;stroke:none;stroke-width:1.32292;stroke-linejoin:round;paint-order:stroke fill markers"
         d="m 104.9996,107.9076 a 25.449871,25.449871 0 0 0 -25.449612,25.44961 25.449871,25.449871 0 0 0 3.891752,13.48806 h 4.99556 v -17.24546 l 16.5623,-9.5622 16.56281,9.5622 v 17.24546 h 5.01106 a 25.449871,25.449871 0 0 0 3.87625,-13.48806 25.449871,25.449871 0 0 0 -25.45012,-25.44961 z" />
      <path
         style="fill:#ff6600;fill-opacity:1;stroke:#00aad4;stroke-width:2;stroke-linecap:round;stroke-linejoin:round;stroke-dasharray:none;stroke-opacity:1;paint-order:stroke fill markers"
         d="m 87.81939,129.20967 9.558526,5.51862"
         id="path10" />
    </g>
    <path
       style="fill:none;fill-opacity:1;stroke:#00aad4;stroke-width:2;stroke-linecap:round;stroke-linejoin:round;stroke-dasharray:none;stroke-opacity:1;paint-order:stroke fill markers"
       d="m 88.667675,149.23829 17.126735,9.88813"
       id="path12" />
    <path
       style="fill:none;fill-opacity:1;stroke:#00aad4;stroke-width:2;stroke-linecap:round;stroke-linejoin:round;stroke-dasharray:none;stroke-opacity:1;paint-order:stroke fill markers"
       d="m 122.96137,149.23829 -9.80801,5.66266"
       id="path13" />
    <path
       style="fill:none;fill-opacity:1;stroke:#00aad4;stroke-width:2;stroke-linecap:round;stroke-linejoin:round;stroke-dasharray:none;stroke-opacity:1;paint-order:stroke fill markers"
       d="m 123.21587,132.05963 -17.35993,10.02276 v 17.14498"
       id="path14" />
  </g>
</svg>
